<svg width="32" height="32" viewBox="0 0 32 32" fill="none" xmlns="http://www.w3.org/2000/svg">
<rect opacity="0.1" x="-0.000610352" y="0.000366211" width="32" height="32" rx="12" fill="white"/>
<path fill-rule="evenodd" clip-rule="evenodd" d="M19.8461 13.5877L22.6669 13.5877C22.6669 11.3229 21.3099 9.9998 19.0106 9.9998L12.9899 9.9998C10.6906 9.9998 9.33356 11.3229 9.33356 13.5588V18.4408C9.33356 20.6767 10.6906 21.9998 12.9899 21.9998L19.0106 21.9998C21.3099 21.9998 22.6669 20.6767 22.6669 18.4408V18.2328H19.8461C18.537 18.2328 17.4758 17.1981 17.4758 15.9218C17.4758 14.6455 18.537 13.6108 19.8461 13.6108V13.5877ZM19.8449 14.5814L22.1679 14.5814C22.4428 14.5814 22.6656 14.7987 22.6656 15.0668V16.7538C22.6624 17.0205 22.4414 17.236 22.1679 17.2391H19.8982C19.2355 17.2478 18.656 16.8054 18.5056 16.176C18.4304 15.7854 18.536 15.3822 18.7944 15.0746C19.0527 14.7671 19.4372 14.5865 19.8449 14.5814ZM19.9486 16.3552H20.1679C20.4493 16.3552 20.6775 16.1328 20.6775 15.8584C20.6775 15.5839 20.4493 15.3615 20.1679 15.3615H19.9486C19.814 15.3599 19.6844 15.411 19.5886 15.5033C19.4929 15.5955 19.439 15.7213 19.439 15.8526C19.439 16.1279 19.6662 16.3521 19.9486 16.3552ZM12.4931 13.588L16.256 13.588C16.5375 13.588 16.7657 13.3656 16.7657 13.0912C16.7657 12.8168 16.5375 12.5943 16.256 12.5943L12.4931 12.5943C12.2139 12.5943 11.9867 12.8132 11.9834 13.0854C11.9834 13.3608 12.2107 13.5849 12.4931 13.588Z" fill="#808191"/>
</svg>
