<svg width="34" height="35" viewBox="0 0 34 35" fill="none" xmlns="http://www.w3.org/2000/svg">
<g opacity="0.1" filter="url(#filter0_d_1_221)">
<rect x="0.99939" y="0.000305176" width="32" height="32" rx="12" fill="white"/>
</g>
<path fill-rule="evenodd" clip-rule="evenodd" d="M17.1055 19.094L18.9998 17.1807C19.1913 16.9807 19.1913 16.6674 18.9932 16.474C18.8018 16.2807 18.4916 16.2807 18.3002 16.474L17.2507 17.5407V14.3274C17.2507 14.0474 17.0329 13.8274 16.7622 13.8274C16.4916 13.8274 16.2672 14.0474 16.2672 14.3274V17.5407L15.2177 16.474C15.0263 16.2807 14.716 16.2807 14.5246 16.474C14.3332 16.6674 14.3332 16.9807 14.5246 17.1807L16.4124 19.094C16.4586 19.1407 16.5114 19.174 16.5708 19.2007C16.6302 19.2274 16.6962 19.2407 16.7622 19.2407C16.8282 19.2407 16.8876 19.2274 16.947 19.2007C17.0064 19.174 17.0593 19.1407 17.1055 19.094ZM21.8885 14.0178C22.0437 14.016 22.2126 14.014 22.3661 14.014C22.5377 14.014 22.6698 14.1474 22.6698 14.314V19.674C22.6698 21.3274 21.3364 22.6674 19.6995 22.6674L14.4519 22.6674C12.7292 22.6674 11.3364 21.2607 11.3364 19.5274V12.3407C11.3364 10.6874 12.6632 9.33403 14.3133 9.33403H17.8381C18.0031 9.33403 18.1417 9.47403 18.1417 9.6407V11.7874C18.1417 13.0074 19.1318 14.0074 20.3463 14.014C20.6253 14.014 20.8749 14.0161 21.0928 14.018C21.2616 14.0194 21.4114 14.0207 21.541 14.0207C21.635 14.0207 21.7568 14.0193 21.8885 14.0178ZM22.0728 13.0448C21.5309 13.0468 20.8913 13.0448 20.4313 13.0401C19.7012 13.0401 19.0999 12.4328 19.0999 11.6954V9.9381C19.0999 9.65077 19.4451 9.5081 19.6418 9.71543C20.1503 10.249 20.9289 11.0668 21.5868 11.7578C21.8529 12.0373 22.0992 12.296 22.2999 12.5068C22.4926 12.7088 22.3514 13.0441 22.0728 13.0448Z" fill="#808191"/>
<defs>
<filter id="filter0_d_1_221" x="-0.000610292" y="0.000305176" width="34" height="35" filterUnits="userSpaceOnUse" color-interpolation-filters="sRGB">
<feFlood flood-opacity="0" result="BackgroundImageFix"/>
<feColorMatrix in="SourceAlpha" type="matrix" values="0 0 0 0 0 0 0 0 0 0 0 0 0 0 0 0 0 0 127 0" result="hardAlpha"/>
<feOffset dy="2"/>
<feGaussianBlur stdDeviation="0.5"/>
<feColorMatrix type="matrix" values="0 0 0 0 0.25098 0 0 0 0 0.282353 0 0 0 0 0.321569 0 0 0 0.05 0"/>
<feBlend mode="normal" in2="BackgroundImageFix" result="effect1_dropShadow_1_221"/>
<feBlend mode="normal" in="SourceGraphic" in2="effect1_dropShadow_1_221" result="shape"/>
</filter>
</defs>
</svg>
