<svg width="32" height="32" viewBox="0 0 32 32" fill="none" xmlns="http://www.w3.org/2000/svg">
<rect opacity="0.1" x="-0.000610352" y="0.000274658" width="32" height="32" rx="12" fill="white"/>
<path d="M15.487 12.8605V10.1878C15.487 9.90364 15.7136 9.66682 16.0003 9.66682C16.257 9.66682 16.4744 9.86582 16.5089 10.1179L16.5136 10.1878V12.8605L19.7002 12.8607C21.2869 12.8607 22.5905 14.16 22.6636 15.7804L22.6669 15.9242V19.2838C22.6669 20.9155 21.4087 22.255 19.8456 22.3302L19.7069 22.3335L12.2936 22.3335C10.7069 22.3335 9.40962 21.0407 9.33678 19.4143L9.33356 19.27L9.33356 15.9173C9.33356 14.2856 10.5855 12.9396 12.1482 12.8641L12.2869 12.8607L15.4869 12.8607V17.129L14.4202 16.0275C14.2202 15.821 13.8936 15.821 13.6936 16.0275C13.5936 16.1307 13.5469 16.2684 13.5469 16.4061C13.5469 16.5108 13.5768 16.6198 13.6399 16.7121L13.6936 16.7779L15.6336 18.7881C15.7269 18.8913 15.8602 18.9464 16.0002 18.9464C16.1113 18.9464 16.2224 18.9082 16.3104 18.8357L16.3602 18.7881L18.3002 16.7779C18.5002 16.5713 18.5002 16.234 18.3002 16.0275C18.1184 15.8397 17.8319 15.8227 17.6311 15.9763L17.5736 16.0275L16.5136 17.129V12.8607L15.487 12.8605Z" fill="#808191"/>
</svg>
