<svg width="32" height="32" viewBox="0 0 32 32" fill="none" xmlns="http://www.w3.org/2000/svg">
<rect opacity="0.1" x="-0.000610352" y="0.000244141" width="32" height="32" rx="12" fill="white"/>
<path fill-rule="evenodd" clip-rule="evenodd" d="M15.2265 16.0048L15.2275 16.2409C15.2356 17.1772 15.292 18.0126 15.3894 18.542C15.3894 18.5515 15.4956 19.0766 15.5632 19.2514C15.6694 19.504 15.8614 19.7184 16.1021 19.8543C16.2948 19.9512 16.497 20.0004 16.7086 20.0004C16.875 19.9927 17.1494 19.909 17.3452 19.8388L17.5079 19.7764C18.5857 19.3483 20.646 17.9494 21.4351 17.0938L21.4933 17.034L21.7529 16.7538C21.9166 16.5394 22.0031 16.2772 22.0031 15.9953C22.0031 15.7426 21.926 15.49 21.7718 15.2859C21.7257 15.2197 21.6513 15.1349 21.5852 15.0632L21.3324 14.7987C20.4628 13.9175 18.5799 12.6816 17.6039 12.2721C17.6039 12.2633 16.9974 12.0099 16.7086 12.0004H16.6701C16.2272 12.0004 15.8134 12.253 15.6017 12.6613C15.5439 12.7729 15.4885 12.9916 15.4463 13.1836L15.3705 13.5462C15.2839 14.1293 15.2265 15.0237 15.2265 16.0048ZM11.0053 14.9882C10.4518 14.9882 10.0031 15.4413 10.0031 16.0001C10.0031 16.5589 10.4518 17.012 11.0053 17.012L13.4714 16.7939C13.9056 16.7939 14.2576 16.4392 14.2576 16.0001C14.2576 15.5617 13.9056 15.2063 13.4714 15.2063L11.0053 14.9882Z" fill="#808191"/>
</svg>
