<svg width="32" height="32" viewBox="0 0 32 32" fill="none" xmlns="http://www.w3.org/2000/svg">
<rect opacity="0.1" x="-0.000610352" width="32" height="32" rx="12" fill="white"/>
<path d="M14.093 21.8495V19.811C14.093 19.2906 14.5179 18.8688 15.0421 18.8688L16.9582 18.8688C17.2099 18.8688 17.4513 18.968 17.6293 19.1447C17.8073 19.3214 17.9073 19.5611 17.9073 19.811V21.8495C17.9057 22.0658 17.9912 22.2738 18.1447 22.4274C18.2983 22.5809 18.5072 22.6672 18.7251 22.6672H20.0324C20.6429 22.6688 21.229 22.4291 21.6612 22.0011C22.0935 21.5731 22.3365 20.9919 22.3365 20.3858V14.5785C22.3365 14.0889 22.1178 13.6245 21.7395 13.3104L17.2925 9.78448C16.5189 9.16628 15.4105 9.18624 14.6601 9.83189L10.3145 13.3104C9.91829 13.6152 9.6815 14.081 9.6698 14.5785V20.3799C9.6698 21.6431 10.7014 22.6672 11.9739 22.6672H13.2513C13.704 22.6672 14.0718 22.3047 14.0751 21.8554L14.093 21.8495Z" fill="#808191"/>
</svg>
